<svg version="1.1" id="Layer_1" xmlns="http://www.w3.org/2000/svg" xmlns:xlink="http://www.w3.org/1999/xlink" x="0px" y="0px"
	 viewBox="0 0 40 40" enable-background="new 0 0 40 40" xml:space="preserve">
<g>
	<g>
		<g>
			<polygon points="39.2,14.2 26.5,18.9 25.7,16.7 38.4,12.1 			"/>
			<polygon points="36.1,8 25.7,16.7 24.3,15 34.6,6.2 			"/>
			<polygon points="31,3.2 24.2,15 22.3,13.9 29.1,2 			"/>
		</g>
		<g>
			<polygon points="24.7,0.4 22.3,13.8 20.1,13.4 22.4,0 			"/>
			<polygon points="17.7,0 20.1,13.4 17.9,13.8 15.5,0.4 			"/>
			<polygon points="11.1,2 17.9,13.9 15.9,15 9.1,3.2 			"/>
		</g>
	</g>
	<g>
		<g>
			<polygon points="5.4,6.2 15.7,15 14.3,16.7 3.9,8 			"/>
			<polygon points="1.6,12.1 14.3,16.7 13.5,18.9 0.8,14.2 			"/>
			<rect x="0" y="18.9" width="13.5" height="2.3"/>
		</g>
		<g>
			<polygon points="0.8,25.8 13.5,21.1 14.3,23.3 1.6,28 			"/>
			<polygon points="3.9,32.1 14.3,23.3 15.7,25 5.4,33.8 			"/>
			<polygon points="9,36.8 15.7,25 17.7,26.1 10.9,38 			"/>
		</g>
	</g>
	<g>
		<g>
			<polygon points="15.5,39.6 17.9,26.2 20.1,26.6 17.7,40 			"/>
			<polygon points="22.4,40 20.1,26.6 22.3,26.2 24.7,39.6 			"/>
			<polygon points="29.1,38 22.3,26.1 24.3,25 31,36.8 			"/>
		</g>
		<g>
			<polygon points="34.6,33.8 24.3,25 25.7,23.3 36.1,32.1 			"/>
			<polygon points="38.4,28 25.7,23.3 26.5,21.1 39.2,25.8 			"/>
			<rect x="26.5" y="18.9" width="13.5" height="2.3"/>
		</g>
	</g>
</g>
</svg>
